# File created by Blade
# Date/Time:  Wed Jan 21 19:03:17 2015
#---------------------------------------------------------
:version 1.10
:name HOM
:units
  mass 1.0
  length 1.000000
  angle deg
:documentation
     Acclaim Skeleton File
:root
   axis xyz
   order TX TY TZ RX RY RZ
   position 0.000000 0.000000 0.000000
   orientation 0 0 0
:bonedata
   begin
      id 1
      name RightUpLeg_dum
      direction -1.000000 0.000000 0.000000
      length 3.693983
      axis 0.0 0.0 0.0 xyz
   end
   begin
      id 2
      name LeftUpLeg_dum
      direction 1.000000 0.000000 0.000000
      length 3.693983
      axis 0.0 0.0 0.0 xyz
   end
   begin
      id 3
      name Spine_dum
      direction 0.000000 1.000000 0.000000
      length 2.392956
      axis 0.0 0.0 0.0 xyz
   end
   begin
      id 4
      name RightUpLeg
      direction 0.000000 -1.000000 0.000000
      length 15.795667
      axis 0.0 0.0 0.0 xyz
      dof rx ry rz
   end
   begin
      id 5
      name RightLeg
      direction 0.000000 -1.000000 0.000000
      length 14.766989
      axis 0.0 0.0 0.0 xyz
      dof rx ry rz
   end
   begin
      id 6
      name RightFoot
      direction 0.000000 -0.258819 0.965926
      length 4.962790
      axis 15.0 0.0 0.0 xyz
      dof rx ry rz
   end
   begin
      id 7
      name RightToeBase
      direction 0.000000 0.000000 1.000000
      length 2.952750
      axis 0.0 0.0 0.0 xyz
      dof rx ry rz
   end
   begin
      id 8
      name LeftUpLeg
      direction 0.000000 -1.000000 0.000000
      length 15.795667
      axis 0.0 0.0 0.0 xyz
      dof rx ry rz
   end
   begin
      id 9
      name LeftLeg
      direction 0.000000 -1.000000 0.000000
      length 14.766989
      axis 0.0 0.0 0.0 xyz
      dof rx ry rz
   end
   begin
      id 10
      name LeftFoot
      direction 0.000000 -0.258819 0.965926
      length 4.962790
      axis 15.0 0.0 0.0 xyz
      dof rx ry rz
   end
   begin
      id 11
      name LeftToeBase
      direction 0.000000 0.000000 1.000000
      length 2.952750
      axis 0.0 0.0 0.0 xyz
      dof rx ry rz
   end
   begin
      id 12
      name Spine
      direction 0.000000 1.000000 0.000000
      length 0.000000
      axis 0.0 0.0 0.0 xyz
      dof rx ry rz
   end
   begin
      id 13
      name Spine_dum1
      direction 0.000000 1.000000 0.000000
      length 13.207411
      axis 0.0 0.0 0.0 xyz
   end
   begin
      id 14
      name Spine_dum2
      direction 0.000000 1.000000 0.000000
      length 13.207411
      axis 0.0 0.0 0.0 xyz
   end
   begin
      id 15
      name Spine_dum3
      direction 0.000000 1.000000 0.000000
      length 19.250100
      axis 0.0 0.0 0.0 xyz
   end
   begin
      id 16
      name RightShoulder
      direction -1.000000 0.000000 0.000000
      length 8.140465
      axis 0.0 0.0 90.0 xyz
      dof rx ry rz
   end
   begin
      id 17
      name RightArm
      direction -1.000000 0.000000 0.000000
      length 10.649840
      axis 0.0 0.0 90.0 xyz
      dof rx ry rz
   end
   begin
      id 18
      name RightForeArm
      direction -1.000000 0.000000 0.000000
      length 8.304624
      axis 0.0 0.0 90.0 xyz
      dof ry rz rx
   end
   begin
      id 19
      name RightHand
      direction -1.000000 0.000000 0.000000
      length 0.000000
      axis 0.0 0.0 90.0 xyz
      dof rx ry rz
   end
   begin
      id 20
      name RightHand_dum1
      direction -1.000000 0.000000 0.000000
      length 3.937000
      axis 0.0 0.0 90.0 xyz
   end
   begin
      id 21
      name RightHand_dum2
      direction 0.000000 0.000000 0.000000
      length 0.000000
      axis 0.0 0.0 90.0 xyz
   end
   begin
      id 22
      name RightHandThumb1
      direction 0.000000 0.000000 1.000000
      length 3.937000
      axis 0.0 0.0 90.0 xyz
      dof rx rz ry
   end
   begin
      id 23
      name LeftShoulder
      direction 1.000000 0.000000 0.000000
      length 8.140465
      axis 0.0 0.0 -90.0 xyz
      dof rx ry rz
   end
   begin
      id 24
      name LeftArm
      direction 1.000000 0.000000 0.000000
      length 10.649840
      axis 0.0 0.0 -90.0 xyz
      dof rx ry rz
   end
   begin
      id 25
      name LeftForeArm
      direction 1.000000 0.000000 0.000000
      length 8.304624
      axis 0.0 0.0 -90.0 xyz
      dof ry rz rx
   end
   begin
      id 26
      name LeftHand
      direction 1.000000 0.000000 0.000000
      length 0.000000
      axis 0.0 0.0 -90.0 xyz
      dof rx ry rz
   end
   begin
      id 27
      name LeftHand_dum1
      direction 1.000000 0.000000 0.000000
      length 3.937000
      axis 0.0 0.0 -90.0 xyz
   end
   begin
      id 28
      name LeftHand_dum2
      direction 0.000000 0.000000 0.000000
      length 0.000000
      axis 0.0 0.0 -90.0 xyz
   end
   begin
      id 29
      name LeftHandThumb1
      direction 0.000000 0.000000 1.000000
      length 3.937000
      axis 0.0 0.0 -90.0 xyz
      dof rx rz ry
   end
   begin
      id 30
      name Head
      direction 0.000000 1.000000 0.000000
      length 4.527550
      axis 0.0 0.0 0.0 xyz
      dof rx ry rz
   end
:hierarchy
   begin
      root RightUpLeg_dum LeftUpLeg_dum Spine_dum
      RightUpLeg_dum RightUpLeg
      LeftUpLeg_dum LeftUpLeg
      Spine_dum Spine
      RightUpLeg RightLeg
      RightLeg RightFoot
      RightFoot RightToeBase
      LeftUpLeg LeftLeg
      LeftLeg LeftFoot
      LeftFoot LeftToeBase
      Spine Spine_dum1 Spine_dum2 Spine_dum3
      Spine_dum1 RightShoulder
      Spine_dum2 LeftShoulder
      Spine_dum3 Head
      RightShoulder RightArm
      RightArm RightForeArm
      RightForeArm RightHand
      RightHand RightHand_dum1 RightHand_dum2
      RightHand_dum2 RightHandThumb1
      LeftShoulder LeftArm
      LeftArm LeftForeArm
      LeftForeArm LeftHand
      LeftHand LeftHand_dum1 LeftHand_dum2
      LeftHand_dum2 LeftHandThumb1
   end

# File created by Blade
# Date/Time:  Wed Jan 21 19:03:07 2015
# Frame Rate: 120.000 fps
#------------------------------------------------------
:FULLY-SPECIFIED
:DEGREES
677
root -5.036808 29.705335 -7.858316 120.115269 -36.926066 3.841591
RightUpLeg -135.340570 -17.037727 12.666727
RightLeg -9.231875 -0.000000 0.000000
RightFoot 8.607505 0.619669 34.519186
RightToeBase 22.470935 -0.000000 -0.000000
LeftUpLeg -104.065709 4.807495 -33.900171
LeftLeg -5.898252 -0.000000 0.000000
LeftFoot -6.104316 6.921466 -19.834444
LeftToeBase 6.962739 -0.000000 -0.000000
Spine 20.245674 -17.749329 20.731911
RightShoulder 13.036028 -2.180023 -33.409685
RightArm 76.630703 20.200642 86.094637
RightForeArm 79.325567 -0.000000 101.373972
RightHand 14.382978 0.000000 0.421190
RightHandThumb1 -24.326973 -0.000000 -32.862282
LeftShoulder 31.895265 12.694060 38.007525
LeftArm 102.549319 -17.722884 -96.877592
LeftForeArm -29.725687 -0.000000 107.705841
LeftHand -24.342030 -0.000000 16.851040
LeftHandThumb1 -26.253704 0.000000 33.147579
Head 42.183487 -0.077342 -3.844156
678
root -5.035549 29.704141 -7.819970 120.198103 -36.872528 3.811549
RightUpLeg -135.286202 -17.094210 12.686950
RightLeg -9.323315 -0.000000 0.000000
RightFoot 8.621907 0.509260 34.640293
RightToeBase 22.436035 -0.000000 -0.000000
LeftUpLeg -104.028849 4.805906 -33.846299
LeftLeg -6.006153 -0.000000 0.000000
LeftFoot -6.114224 6.992838 -19.802983
LeftToeBase 7.042156 -0.000000 -0.000000
Spine 20.369363 -17.942147 20.731112
RightShoulder 13.057900 -2.230150 -33.601713
RightArm 76.828670 20.166852 86.299129
RightForeArm 79.303020 -0.000000 101.537739
RightHand 14.362190 0.000000 0.215020
RightHandThumb1 -24.326973 -0.000000 -32.862282
LeftShoulder 31.673717 12.715128 37.715218
LeftArm 102.600995 -17.855921 -96.578039
LeftForeArm -29.922039 0.000000 107.623484
LeftHand -24.394609 -0.000000 17.026722
LeftHandThumb1 -26.253704 0.000000 33.147579
Head 42.142692 0.522305 -4.417451
679
root -5.032904 29.703958 -7.777553 120.267768 -36.801833 3.779162
RightUpLeg -135.216224 -17.147483 12.728015
RightLeg -9.396670 -0.000000 0.000000
RightFoot 8.604965 0.410819 35.011782
RightToeBase 22.576417 -0.000000 -0.000000
LeftUpLeg -103.998975 4.790769 -33.863138
LeftLeg -6.101356 -0.000000 0.000000
LeftFoot -6.006584 6.956527 -19.789991
LeftToeBase 6.771665 -0.000000 -0.000000
Spine 20.551076 -18.141609 20.750987
RightShoulder 12.999245 -2.263538 -33.808471
RightArm 77.094071 20.082420 86.524125
RightForeArm 79.309716 -0.000000 101.660699
RightHand 14.300487 -0.000000 -0.071175
RightHandThumb1 -24.326973 -0.000000 -32.862282
LeftShoulder 31.370957 12.735051 37.402127
LeftArm 102.712844 -17.873071 -96.308779
LeftForeArm -30.131844 -0.000000 107.484777
LeftHand -24.597099 -0.000000 16.819753
LeftHandThumb1 -26.253704 0.000000 33.147579
Head 41.975836 1.252847 -5.057877
680
root -5.034342 29.703807 -7.744015 120.342859 -36.721269 3.740326
RightUpLeg -135.190425 -17.248509 12.722642
RightLeg -9.360791 -0.000000 0.000000
RightFoot 8.547508 0.419249 35.137676
RightToeBase 22.538436 -0.000000 -0.000000
LeftUpLeg -104.000135 4.804993 -33.850127
LeftLeg -6.162835 -0.000000 0.000000
LeftFoot -5.975502 6.905437 -19.793396
LeftToeBase 6.711656 -0.000000 -0.000000
Spine 20.694917 -18.331553 20.727881
RightShoulder 13.044529 -2.316718 -33.972614
RightArm 77.308916 20.064658 86.738681
RightForeArm 79.133520 -0.000000 101.839315
RightHand 14.204417 -0.000000 -0.003997
RightHandThumb1 -24.326973 -0.000000 -32.862282
LeftShoulder 31.167164 12.789040 37.155064
LeftArm 102.806077 -17.964094 -96.050598
LeftForeArm -30.268880 -0.000000 107.390223
LeftHand -24.635284 -0.000000 16.866381
LeftHandThumb1 -26.253704 0.000000 33.147579
Head 41.962383 1.646753 -5.791530
681
root -5.035635 29.703977 -7.713722 120.410912 -36.645440 3.711992
RightUpLeg -135.165175 -17.324867 12.733403
RightLeg -9.348646 -0.000000 0.000000
RightFoot 8.537824 0.389047 35.336707
RightToeBase 22.472673 -0.000000 -0.000000
LeftUpLeg -104.006853 4.801652 -33.847670
LeftLeg -6.214198 -0.000000 0.000000
LeftFoot -5.953823 6.860885 -19.810107
LeftToeBase 6.689490 -0.000000 -0.000000
Spine 20.857043 -18.508467 20.675013
RightShoulder 13.044955 -2.389569 -34.055499
RightArm 77.563932 20.063544 86.892120
RightForeArm 79.033855 0.000000 101.987172
RightHand 14.115435 -0.000000 -0.095102
RightHandThumb1 -24.326973 -0.000000 -32.862282
LeftShoulder 30.957319 12.758595 36.956902
LeftArm 102.789642 -17.997871 -95.788926
LeftForeArm -30.349256 -0.000000 107.382909
LeftHand -24.438497 -0.000000 17.244873
LeftHandThumb1 -26.253704 0.000000 33.147579
Head 41.917048 1.926915 -6.530079
